<svg width="200" height="196" viewBox="0 0 200 196" fill="none" xmlns="http://www.w3.org/2000/svg">
<path d="M160 24.3617L140 59.6L120 96M40 23.2L50 5H150C168.355 40.5377 178.645 60.4623 197 96C192.5 103.28 187.5 111.925 183 118.75C168.313 90.752 160.687 77.0265 146 49.0285M40 23.2C71.2419 23.2 88.7581 23.2 120 23.2L100 59.6L90 41.4M40 23.2L3 96C21.3546 131.538 31.6454 151.462 50 187M40 23.2L75 86.9L110 150.6H90H130L70 41.4M90 41.4L130 114.2M90 41.4L160 168.8M110 41.4H70M70 41.4L110 114.2M160 168.8L150 187C150 187 89.0524 187 50 187M160 168.8H80L100 132.4M50 187C46.0948 179.439 40 167.638 40 167.638L80 96M52.5622 145.14L14.7937 72.795" stroke="black" stroke-width="5" stroke-linecap="round" stroke-linejoin="round"/>
<path d="M48.6959 4H151V23H40L48.6959 4Z" fill="black"/>
<path d="M150.304 187H48V168H159L150.304 187Z" fill="black"/>
<path d="M101 58.33L132.117 3.66265L152.5 9.1294L159.5 25.074L120.5 93.4082L101 58.33Z" fill="black"/>
<path d="M101.5 134.864L72 187.709L49.925 187.709L38.7554 165.654L78.425 98.4194L101.5 134.864Z" fill="black"/>
</svg>
